<mxfile host="app.diagrams.net" modified="2023-10-14T18:15:04.208Z" agent="Mozilla/5.0 (Windows NT 10.0; Win64; x64) AppleWebKit/537.36 (KHTML, like Gecko) Chrome/118.0.0.0 Safari/537.36" version="22.0.4" etag="sDoKYviK8tO8CdFMD1r7" type="github">
  <diagram name="Strona-1" id="j4gLFCnVZBW1DzCjW9iH">
    <mxGraphModel>
      <root>
        <mxCell id="0" />
        <mxCell id="1" parent="0" />
      </root>
    </mxGraphModel>
  </diagram>
</mxfile>
